<?xml version="1.0" encoding="UTF-8"?>
<svg width="120" height="120" viewBox="0 0 120 120" fill="none" xmlns="http://www.w3.org/2000/svg">
  <circle cx="60" cy="60" r="60" fill="url(#gradient-default)" />
  
  <!-- Glow effect filter -->
  <filter id="glow-favicon" x="-50%" y="-50%" width="200%" height="200%">
    <feGaussianBlur stdDeviation="4" result="blur" />
    <feComposite in="SourceGraphic" in2="blur" operator="over" />
  </filter>
  
  <!-- Simple heart with white fill -->
  <path
    d="M60 30C60 30 48 20 34 20C20 20 12 32 12 44C12 68 60 90 60 90C60 90 108 68 108 44C108 32 100 20 86 20C72 20 60 30 60 30Z"
    fill="white"
  />
  
  <!-- Glowing outline -->
  <path
    d="M60 30C60 30 48 20 34 20C20 20 12 32 12 44C12 68 60 90 60 90C60 90 108 68 108 44C108 32 100 20 86 20C72 20 60 30 60 30Z"
    fill="none"
    stroke="#ff2d70"
    stroke-width="3"
    filter="url(#glow-favicon)"
  />
  
  <defs>
    <linearGradient
      id="gradient-default"
      x1="0"
      y1="0"
      x2="120"
      y2="120"
      gradientUnits="userSpaceOnUse"
    >
      <stop offset="0%" stop-color="#6366F1" />
      <stop offset="100%" stop-color="#3B82F6" />
    </linearGradient>
  </defs>
</svg>
